<svg width="162" height="28" viewBox="0 0 162 28" fill="none" xmlns="http://www.w3.org/2000/svg">
<g clip-path="url(#clip0_1_25)">
<path d="M10.8544 21.2853H0.5V6.65344H4.11718V18.4403H11.2558L10.8544 21.2853Z" fill="#22232D"/>
<path d="M40.4932 12.4661L40.0919 15.1525H32.9932V18.4403H41.737L41.3358 21.2853H29.376V6.65344H41.5084L41.1071 9.50132H32.9932V12.4661H40.4932Z" fill="#22232D"/>
<path d="M62.0606 21.2853H57.5052L62.9031 13.6688L57.9836 6.65344H62.2891L65.218 11.4639L68.1839 6.65344H72.4895L67.5514 13.6688L72.9678 21.2853H68.3939L65.218 16.255L62.0606 21.2853Z" fill="#22232D"/>
<path d="M89.8446 10.8431H89.7889V21.2853H86.1718V6.65344H91.2427L94.9156 16.717L98.57 6.65344H103.662V21.2853H100.045V10.8431H99.9865L96.1409 21.2853H93.6905L89.8446 10.8431Z" fill="#22232D"/>
<path d="M129.532 12.4661L129.131 15.1525H122.033V18.4403H130.757L130.356 21.2853H118.415V6.65344H130.547L130.143 9.50132H122.033V12.4661H129.532Z" fill="#22232D"/>
<path d="M154.122 6.65924H155.537C157.107 6.65924 160.741 7.04063 160.741 10.835C160.741 13.321 159.078 14.1423 158.084 14.4819V14.5208C160.19 15.1221 160.267 16.9873 160.267 18.0674C160.344 19.9521 160.303 20.5117 160.859 21.294H157.178C156.527 20.4115 156.737 19.7712 156.566 17.5664C156.394 15.896 154.616 15.896 154.116 15.896V13.2291H154.613C156.641 13.2291 156.928 12.0878 156.928 11.3862C156.928 9.94419 156.048 9.50155 154.478 9.50155H154.114L154.122 6.65924ZM147.674 6.65924H154.122V9.50435H151.288V13.2319H154.122V15.8988H151.288V21.2912H147.671L147.674 6.65924Z" fill="#22232D"/>
</g>
<defs>
<clipPath id="clip0_1_25">
<rect width="161" height="28" fill="white" transform="translate(0.5)"/>
</clipPath>
</defs>
</svg>
