<svg width="210" height="21" viewBox="0 0 210 21" fill="none" xmlns="http://www.w3.org/2000/svg">
<g clip-path="url(#clip0_1_30)">
<path d="M210 0.805298H0V20.8053H210V0.805298Z" fill="#22232D"/>
<path d="M26.49 16.0091H19.094V5.55774H21.6777V13.9769H26.7767L26.49 16.0091Z" fill="white"/>
<path d="M47.6606 9.70966L47.3739 11.6285H42.3034V13.9769H48.549L48.2624 16.0091H39.7197V5.55774H48.3857L48.0991 7.59194H42.3034V9.70966H47.6606Z" fill="white"/>
<path d="M63.0658 16.0091H59.812L63.6676 10.5687L60.1537 5.55774H63.229L65.3211 8.99381L67.4396 5.55774H70.515L66.9878 10.5687L70.8567 16.0091H67.5896L65.3211 12.416L63.0658 16.0091Z" fill="white"/>
<path d="M82.9116 8.55038H82.8718V16.0091H80.2881V5.55774H83.9102L86.5337 12.746L89.144 5.55774H92.7813V16.0091H90.1976V8.55038H90.1558L87.4089 16.0091H85.6586L82.9116 8.55038Z" fill="white"/>
<path d="M111.26 9.70966L110.973 11.6285H105.903V13.9769H112.135L111.848 16.0091H103.319V5.55774H111.985L111.696 7.59194H105.903V9.70966H111.26Z" fill="white"/>
<path d="M128.824 5.56189H129.835C130.956 5.56189 133.552 5.83431 133.552 8.54459C133.552 10.3203 132.364 10.9069 131.654 11.1495V11.1773C133.158 11.6068 133.213 12.9391 133.213 13.7106C133.268 15.0568 133.239 15.4565 133.636 16.0153H131.007C130.542 15.3849 130.692 14.9276 130.57 13.3527C130.447 12.1596 129.177 12.1596 128.82 12.1596V10.2547H129.175C130.623 10.2547 130.828 9.4394 130.828 8.93831C130.828 7.90828 130.2 7.59211 129.078 7.59211H128.818L128.824 5.56189ZM124.218 5.56189H128.824V7.59411H126.8V10.2567H128.824V12.1616H126.8V16.0133H124.216L124.218 5.56189Z" fill="white"/>
</g>
<defs>
<clipPath id="clip0_1_30">
<rect width="210" height="20" fill="white" transform="translate(0 0.805298)"/>
</clipPath>
</defs>
</svg>
